<mxfile host="app.diagrams.net" agent="Mozilla/5.0 (Windows NT 10.0; Win64; x64) AppleWebKit/537.36 (KHTML, like Gecko) Chrome/141.0.0.0 Safari/537.36" version="28.2.8">
  <diagram name="Сторінка-1" id="y6iVjI0kDgoRlhh61syA">
    <mxGraphModel dx="1480" dy="817" grid="1" gridSize="10" guides="1" tooltips="1" connect="1" arrows="1" fold="1" page="1" pageScale="1" pageWidth="1654" pageHeight="1169" math="0" shadow="0">
      <root>
        <mxCell id="0" />
        <mxCell id="1" parent="0" />
        <mxCell id="b_i_K-voBe4nod8YddAA-3" style="rounded=0;orthogonalLoop=1;jettySize=auto;html=1;endArrow=none;endFill=0;" parent="1" source="b_i_K-voBe4nod8YddAA-1" edge="1">
          <mxGeometry relative="1" as="geometry">
            <mxPoint x="674.5816969971004" y="248.25636503788667" as="targetPoint" />
          </mxGeometry>
        </mxCell>
        <mxCell id="b_i_K-voBe4nod8YddAA-7" style="rounded=0;orthogonalLoop=1;jettySize=auto;html=1;entryX=1;entryY=0.5;entryDx=0;entryDy=0;endArrow=none;endFill=0;" parent="1" source="b_i_K-voBe4nod8YddAA-1" target="1JkFjPlNz9Ic-y4vsCJE-34" edge="1">
          <mxGeometry relative="1" as="geometry">
            <mxPoint x="504.9999999999927" y="310" as="targetPoint" />
          </mxGeometry>
        </mxCell>
        <mxCell id="b_i_K-voBe4nod8YddAA-8" style="rounded=0;orthogonalLoop=1;jettySize=auto;html=1;entryX=0.5;entryY=1;entryDx=0;entryDy=0;endArrow=none;endFill=0;" parent="1" source="b_i_K-voBe4nod8YddAA-1" target="b_i_K-voBe4nod8YddAA-4" edge="1">
          <mxGeometry relative="1" as="geometry" />
        </mxCell>
        <mxCell id="b_i_K-voBe4nod8YddAA-10" style="rounded=0;orthogonalLoop=1;jettySize=auto;html=1;exitX=0.5;exitY=0;exitDx=0;exitDy=0;entryX=0.5;entryY=1;entryDx=0;entryDy=0;endArrow=none;endFill=0;" parent="1" source="b_i_K-voBe4nod8YddAA-1" target="b_i_K-voBe4nod8YddAA-6" edge="1">
          <mxGeometry relative="1" as="geometry" />
        </mxCell>
        <mxCell id="b_i_K-voBe4nod8YddAA-1" value="&lt;font style=&quot;font-size: 14px;&quot;&gt;User&lt;/font&gt;" style="whiteSpace=wrap;html=1;align=center;" parent="1" vertex="1">
          <mxGeometry x="555" y="280" width="125" height="50" as="geometry" />
        </mxCell>
        <mxCell id="b_i_K-voBe4nod8YddAA-4" value="Email" style="ellipse;whiteSpace=wrap;html=1;align=center;" parent="1" vertex="1">
          <mxGeometry x="415" y="210" width="100" height="40" as="geometry" />
        </mxCell>
        <mxCell id="b_i_K-voBe4nod8YddAA-6" value="Name" style="ellipse;whiteSpace=wrap;html=1;align=center;" parent="1" vertex="1">
          <mxGeometry x="535" y="210" width="100" height="40" as="geometry" />
        </mxCell>
        <mxCell id="b_i_K-voBe4nod8YddAA-9" value="User_ID" style="ellipse;whiteSpace=wrap;html=1;align=center;fontStyle=4;" parent="1" vertex="1">
          <mxGeometry x="645" y="210" width="100" height="40" as="geometry" />
        </mxCell>
        <mxCell id="b_i_K-voBe4nod8YddAA-13" style="rounded=0;orthogonalLoop=1;jettySize=auto;html=1;exitX=0;exitY=0.5;exitDx=0;exitDy=0;entryX=1;entryY=0.5;entryDx=0;entryDy=0;endArrow=none;endFill=0;" parent="1" source="b_i_K-voBe4nod8YddAA-11" target="b_i_K-voBe4nod8YddAA-1" edge="1">
          <mxGeometry relative="1" as="geometry" />
        </mxCell>
        <mxCell id="1JkFjPlNz9Ic-y4vsCJE-18" value="1" style="edgeLabel;html=1;align=center;verticalAlign=middle;resizable=0;points=[];" vertex="1" connectable="0" parent="b_i_K-voBe4nod8YddAA-13">
          <mxGeometry x="0.6262" relative="1" as="geometry">
            <mxPoint y="-8" as="offset" />
          </mxGeometry>
        </mxCell>
        <mxCell id="b_i_K-voBe4nod8YddAA-17" value="" style="rounded=0;orthogonalLoop=1;jettySize=auto;html=1;endArrow=none;endFill=0;" parent="1" source="b_i_K-voBe4nod8YddAA-11" target="b_i_K-voBe4nod8YddAA-16" edge="1">
          <mxGeometry relative="1" as="geometry" />
        </mxCell>
        <mxCell id="1JkFjPlNz9Ic-y4vsCJE-19" value="N" style="edgeLabel;html=1;align=center;verticalAlign=middle;resizable=0;points=[];" vertex="1" connectable="0" parent="b_i_K-voBe4nod8YddAA-17">
          <mxGeometry x="0.5698" y="1" relative="1" as="geometry">
            <mxPoint y="-7" as="offset" />
          </mxGeometry>
        </mxCell>
        <mxCell id="b_i_K-voBe4nod8YddAA-11" value="writes" style="shape=rhombus;perimeter=rhombusPerimeter;whiteSpace=wrap;html=1;align=center;" parent="1" vertex="1">
          <mxGeometry x="720" y="275" width="120" height="60" as="geometry" />
        </mxCell>
        <mxCell id="b_i_K-voBe4nod8YddAA-26" style="rounded=0;orthogonalLoop=1;jettySize=auto;html=1;entryX=0.5;entryY=1;entryDx=0;entryDy=0;endArrow=none;endFill=0;" parent="1" source="b_i_K-voBe4nod8YddAA-16" target="b_i_K-voBe4nod8YddAA-20" edge="1">
          <mxGeometry relative="1" as="geometry" />
        </mxCell>
        <mxCell id="b_i_K-voBe4nod8YddAA-27" style="rounded=0;orthogonalLoop=1;jettySize=auto;html=1;entryX=0.5;entryY=1;entryDx=0;entryDy=0;endArrow=none;endFill=0;" parent="1" source="b_i_K-voBe4nod8YddAA-16" target="b_i_K-voBe4nod8YddAA-18" edge="1">
          <mxGeometry relative="1" as="geometry" />
        </mxCell>
        <mxCell id="b_i_K-voBe4nod8YddAA-16" value="&lt;font style=&quot;font-size: 14px;&quot;&gt;Review&lt;/font&gt;" style="whiteSpace=wrap;html=1;" parent="1" vertex="1">
          <mxGeometry x="900" y="280" width="120" height="50" as="geometry" />
        </mxCell>
        <mxCell id="b_i_K-voBe4nod8YddAA-18" value="Review_ID" style="ellipse;whiteSpace=wrap;html=1;align=center;fontStyle=4;" parent="1" vertex="1">
          <mxGeometry x="927" y="160" width="100" height="40" as="geometry" />
        </mxCell>
        <mxCell id="b_i_K-voBe4nod8YddAA-19" value="Rating" style="ellipse;whiteSpace=wrap;html=1;align=center;" parent="1" vertex="1">
          <mxGeometry x="777" y="230" width="100" height="40" as="geometry" />
        </mxCell>
        <mxCell id="b_i_K-voBe4nod8YddAA-20" value="Comment" style="ellipse;whiteSpace=wrap;html=1;align=center;" parent="1" vertex="1">
          <mxGeometry x="827" y="180" width="100" height="40" as="geometry" />
        </mxCell>
        <mxCell id="b_i_K-voBe4nod8YddAA-21" value="Date" style="ellipse;whiteSpace=wrap;html=1;align=center;" parent="1" vertex="1">
          <mxGeometry x="1065" y="320" width="100" height="40" as="geometry" />
        </mxCell>
        <mxCell id="b_i_K-voBe4nod8YddAA-25" style="rounded=0;orthogonalLoop=1;jettySize=auto;html=1;entryX=0.5;entryY=1;entryDx=0;entryDy=0;endArrow=none;endFill=0;" parent="1" source="b_i_K-voBe4nod8YddAA-16" target="b_i_K-voBe4nod8YddAA-19" edge="1">
          <mxGeometry relative="1" as="geometry" />
        </mxCell>
        <mxCell id="b_i_K-voBe4nod8YddAA-28" style="rounded=0;orthogonalLoop=1;jettySize=auto;html=1;entryX=0;entryY=0.5;entryDx=0;entryDy=0;endArrow=none;endFill=0;" parent="1" source="b_i_K-voBe4nod8YddAA-16" target="b_i_K-voBe4nod8YddAA-21" edge="1">
          <mxGeometry relative="1" as="geometry" />
        </mxCell>
        <mxCell id="b_i_K-voBe4nod8YddAA-33" style="rounded=0;orthogonalLoop=1;jettySize=auto;html=1;entryX=0.5;entryY=1;entryDx=0;entryDy=0;endArrow=none;endFill=0;exitX=0.5;exitY=0;exitDx=0;exitDy=0;" parent="1" source="b_i_K-voBe4nod8YddAA-32" target="b_i_K-voBe4nod8YddAA-16" edge="1">
          <mxGeometry relative="1" as="geometry" />
        </mxCell>
        <mxCell id="1JkFjPlNz9Ic-y4vsCJE-25" value="N" style="edgeLabel;html=1;align=center;verticalAlign=middle;resizable=0;points=[];" vertex="1" connectable="0" parent="b_i_K-voBe4nod8YddAA-33">
          <mxGeometry x="0.8194" y="1" relative="1" as="geometry">
            <mxPoint y="8" as="offset" />
          </mxGeometry>
        </mxCell>
        <mxCell id="b_i_K-voBe4nod8YddAA-35" style="rounded=0;orthogonalLoop=1;jettySize=auto;html=1;entryX=0.75;entryY=0;entryDx=0;entryDy=0;endArrow=none;endFill=0;exitX=0.5;exitY=1;exitDx=0;exitDy=0;" parent="1" source="b_i_K-voBe4nod8YddAA-32" target="b_i_K-voBe4nod8YddAA-34" edge="1">
          <mxGeometry relative="1" as="geometry" />
        </mxCell>
        <mxCell id="1JkFjPlNz9Ic-y4vsCJE-24" value="1" style="edgeLabel;html=1;align=center;verticalAlign=middle;resizable=0;points=[];" vertex="1" connectable="0" parent="b_i_K-voBe4nod8YddAA-35">
          <mxGeometry x="0.8599" y="-2" relative="1" as="geometry">
            <mxPoint x="-5" as="offset" />
          </mxGeometry>
        </mxCell>
        <mxCell id="b_i_K-voBe4nod8YddAA-32" value="has" style="shape=rhombus;perimeter=rhombusPerimeter;whiteSpace=wrap;html=1;align=center;" parent="1" vertex="1">
          <mxGeometry x="1015" y="405" width="120" height="60" as="geometry" />
        </mxCell>
        <mxCell id="b_i_K-voBe4nod8YddAA-59" style="rounded=0;orthogonalLoop=1;jettySize=auto;html=1;entryX=0.5;entryY=1;entryDx=0;entryDy=0;endArrow=none;endFill=0;" parent="1" source="b_i_K-voBe4nod8YddAA-34" target="b_i_K-voBe4nod8YddAA-36" edge="1">
          <mxGeometry relative="1" as="geometry" />
        </mxCell>
        <mxCell id="1JkFjPlNz9Ic-y4vsCJE-14" style="rounded=0;orthogonalLoop=1;jettySize=auto;html=1;entryX=0;entryY=0;entryDx=0;entryDy=0;endArrow=none;endFill=0;" edge="1" parent="1" source="b_i_K-voBe4nod8YddAA-34" target="1JkFjPlNz9Ic-y4vsCJE-12">
          <mxGeometry relative="1" as="geometry" />
        </mxCell>
        <mxCell id="1JkFjPlNz9Ic-y4vsCJE-15" style="rounded=0;orthogonalLoop=1;jettySize=auto;html=1;entryX=0;entryY=0;entryDx=0;entryDy=0;endArrow=none;endFill=0;" edge="1" parent="1" source="b_i_K-voBe4nod8YddAA-34" target="1JkFjPlNz9Ic-y4vsCJE-13">
          <mxGeometry relative="1" as="geometry" />
        </mxCell>
        <mxCell id="b_i_K-voBe4nod8YddAA-34" value="&lt;span style=&quot;font-size: 14px;&quot;&gt;Accommodations&lt;/span&gt;" style="whiteSpace=wrap;html=1;align=center;" parent="1" vertex="1">
          <mxGeometry x="950" y="616" width="125" height="52" as="geometry" />
        </mxCell>
        <mxCell id="b_i_K-voBe4nod8YddAA-36" value="&lt;span style=&quot;text-align: left;&quot;&gt;Accommodations_ID&lt;/span&gt;" style="ellipse;whiteSpace=wrap;html=1;align=center;fontStyle=4;" parent="1" vertex="1">
          <mxGeometry x="865" y="735" width="130" height="40" as="geometry" />
        </mxCell>
        <mxCell id="b_i_K-voBe4nod8YddAA-38" style="rounded=0;orthogonalLoop=1;jettySize=auto;html=1;entryX=0.5;entryY=1;entryDx=0;entryDy=0;endArrow=none;endFill=0;exitX=1;exitY=0;exitDx=0;exitDy=0;" parent="1" source="b_i_K-voBe4nod8YddAA-37" target="b_i_K-voBe4nod8YddAA-1" edge="1">
          <mxGeometry relative="1" as="geometry" />
        </mxCell>
        <mxCell id="1JkFjPlNz9Ic-y4vsCJE-20" value="1" style="edgeLabel;html=1;align=center;verticalAlign=middle;resizable=0;points=[];" vertex="1" connectable="0" parent="b_i_K-voBe4nod8YddAA-38">
          <mxGeometry x="0.5911" relative="1" as="geometry">
            <mxPoint x="13" as="offset" />
          </mxGeometry>
        </mxCell>
        <mxCell id="b_i_K-voBe4nod8YddAA-40" style="rounded=0;orthogonalLoop=1;jettySize=auto;html=1;entryX=0.5;entryY=0;entryDx=0;entryDy=0;endArrow=none;endFill=0;" parent="1" source="b_i_K-voBe4nod8YddAA-37" target="b_i_K-voBe4nod8YddAA-39" edge="1">
          <mxGeometry relative="1" as="geometry" />
        </mxCell>
        <mxCell id="1JkFjPlNz9Ic-y4vsCJE-21" value="N" style="edgeLabel;html=1;align=center;verticalAlign=middle;resizable=0;points=[];" vertex="1" connectable="0" parent="b_i_K-voBe4nod8YddAA-40">
          <mxGeometry x="0.7126" y="-1" relative="1" as="geometry">
            <mxPoint x="-8" as="offset" />
          </mxGeometry>
        </mxCell>
        <mxCell id="b_i_K-voBe4nod8YddAA-37" value="makes" style="shape=rhombus;perimeter=rhombusPerimeter;whiteSpace=wrap;html=1;align=center;" parent="1" vertex="1">
          <mxGeometry x="405" y="385" width="120" height="60" as="geometry" />
        </mxCell>
        <mxCell id="b_i_K-voBe4nod8YddAA-50" style="rounded=0;orthogonalLoop=1;jettySize=auto;html=1;entryX=1;entryY=1;entryDx=0;entryDy=0;endArrow=none;endFill=0;" parent="1" source="b_i_K-voBe4nod8YddAA-39" target="b_i_K-voBe4nod8YddAA-42" edge="1">
          <mxGeometry relative="1" as="geometry" />
        </mxCell>
        <mxCell id="b_i_K-voBe4nod8YddAA-51" style="rounded=0;orthogonalLoop=1;jettySize=auto;html=1;entryX=1;entryY=0.5;entryDx=0;entryDy=0;endArrow=none;endFill=0;" parent="1" source="b_i_K-voBe4nod8YddAA-39" target="b_i_K-voBe4nod8YddAA-43" edge="1">
          <mxGeometry relative="1" as="geometry" />
        </mxCell>
        <mxCell id="b_i_K-voBe4nod8YddAA-55" style="rounded=0;orthogonalLoop=1;jettySize=auto;html=1;entryX=0;entryY=0;entryDx=0;entryDy=0;endArrow=none;endFill=0;" parent="1" source="b_i_K-voBe4nod8YddAA-39" target="b_i_K-voBe4nod8YddAA-47" edge="1">
          <mxGeometry relative="1" as="geometry" />
        </mxCell>
        <mxCell id="b_i_K-voBe4nod8YddAA-39" value="&lt;span style=&quot;font-size: 14px;&quot;&gt;Reservation&lt;/span&gt;" style="whiteSpace=wrap;html=1;align=center;" parent="1" vertex="1">
          <mxGeometry x="360" y="515" width="120" height="55" as="geometry" />
        </mxCell>
        <mxCell id="b_i_K-voBe4nod8YddAA-41" value="&lt;span style=&quot;text-align: left;&quot;&gt;Reservation_ID&lt;/span&gt;" style="ellipse;whiteSpace=wrap;html=1;align=center;fontStyle=4;" parent="1" vertex="1">
          <mxGeometry x="250" y="435" width="100" height="40" as="geometry" />
        </mxCell>
        <mxCell id="b_i_K-voBe4nod8YddAA-42" value="&lt;span style=&quot;text-align: left;&quot;&gt;User_ID (FK)&lt;/span&gt;" style="ellipse;whiteSpace=wrap;html=1;align=center;" parent="1" vertex="1">
          <mxGeometry x="200" y="475" width="100" height="40" as="geometry" />
        </mxCell>
        <mxCell id="b_i_K-voBe4nod8YddAA-43" value="&lt;span style=&quot;text-align: left;&quot;&gt;Accommodations_ID (FK)&lt;/span&gt;" style="ellipse;whiteSpace=wrap;html=1;align=center;" parent="1" vertex="1">
          <mxGeometry x="180" y="522" width="130" height="53" as="geometry" />
        </mxCell>
        <mxCell id="b_i_K-voBe4nod8YddAA-44" value="&lt;span style=&quot;text-align: left;&quot;&gt;Payment Status&lt;/span&gt;" style="ellipse;whiteSpace=wrap;html=1;align=center;" parent="1" vertex="1">
          <mxGeometry x="200" y="585" width="100" height="40" as="geometry" />
        </mxCell>
        <mxCell id="b_i_K-voBe4nod8YddAA-45" value="&lt;span style=&quot;text-align: left;&quot;&gt;Start date&lt;/span&gt;" style="ellipse;whiteSpace=wrap;html=1;align=center;" parent="1" vertex="1">
          <mxGeometry x="490" y="572" width="100" height="40" as="geometry" />
        </mxCell>
        <mxCell id="b_i_K-voBe4nod8YddAA-46" value="&lt;span style=&quot;text-align: left;&quot;&gt;Room_ID (FK)&lt;/span&gt;" style="ellipse;whiteSpace=wrap;html=1;align=center;" parent="1" vertex="1">
          <mxGeometry x="370" y="605" width="100" height="40" as="geometry" />
        </mxCell>
        <mxCell id="b_i_K-voBe4nod8YddAA-47" value="&lt;span style=&quot;text-align: left;&quot;&gt;End date&lt;/span&gt;" style="ellipse;whiteSpace=wrap;html=1;align=center;" parent="1" vertex="1">
          <mxGeometry x="480" y="465" width="100" height="40" as="geometry" />
        </mxCell>
        <mxCell id="b_i_K-voBe4nod8YddAA-49" style="rounded=0;orthogonalLoop=1;jettySize=auto;html=1;entryX=0.7;entryY=1;entryDx=0;entryDy=0;entryPerimeter=0;endArrow=none;endFill=0;" parent="1" source="b_i_K-voBe4nod8YddAA-39" target="b_i_K-voBe4nod8YddAA-41" edge="1">
          <mxGeometry relative="1" as="geometry" />
        </mxCell>
        <mxCell id="b_i_K-voBe4nod8YddAA-52" style="rounded=0;orthogonalLoop=1;jettySize=auto;html=1;entryX=0.972;entryY=0.318;entryDx=0;entryDy=0;entryPerimeter=0;endArrow=none;endFill=0;" parent="1" source="b_i_K-voBe4nod8YddAA-39" target="b_i_K-voBe4nod8YddAA-44" edge="1">
          <mxGeometry relative="1" as="geometry" />
        </mxCell>
        <mxCell id="b_i_K-voBe4nod8YddAA-53" style="rounded=0;orthogonalLoop=1;jettySize=auto;html=1;entryX=0.5;entryY=0;entryDx=0;entryDy=0;endArrow=none;endFill=0;" parent="1" source="b_i_K-voBe4nod8YddAA-39" target="b_i_K-voBe4nod8YddAA-46" edge="1">
          <mxGeometry relative="1" as="geometry" />
        </mxCell>
        <mxCell id="b_i_K-voBe4nod8YddAA-54" style="rounded=0;orthogonalLoop=1;jettySize=auto;html=1;entryX=0;entryY=0;entryDx=0;entryDy=0;endArrow=none;endFill=0;" parent="1" source="b_i_K-voBe4nod8YddAA-39" target="b_i_K-voBe4nod8YddAA-45" edge="1">
          <mxGeometry relative="1" as="geometry" />
        </mxCell>
        <mxCell id="b_i_K-voBe4nod8YddAA-56" value="&lt;span style=&quot;text-align: left;&quot;&gt;User_ID (FK)&lt;/span&gt;" style="ellipse;whiteSpace=wrap;html=1;align=center;" parent="1" vertex="1">
          <mxGeometry x="815" y="685" width="100" height="40" as="geometry" />
        </mxCell>
        <mxCell id="b_i_K-voBe4nod8YddAA-60" style="rounded=0;orthogonalLoop=1;jettySize=auto;html=1;entryX=1;entryY=0;entryDx=0;entryDy=0;endArrow=none;endFill=0;" parent="1" source="b_i_K-voBe4nod8YddAA-34" edge="1" target="b_i_K-voBe4nod8YddAA-56">
          <mxGeometry relative="1" as="geometry">
            <mxPoint x="920.1999999999998" y="685.0400000000002" as="targetPoint" />
          </mxGeometry>
        </mxCell>
        <mxCell id="b_i_K-voBe4nod8YddAA-65" style="rounded=0;orthogonalLoop=1;jettySize=auto;html=1;entryX=1;entryY=0.5;entryDx=0;entryDy=0;endArrow=none;endFill=0;" parent="1" source="b_i_K-voBe4nod8YddAA-63" target="b_i_K-voBe4nod8YddAA-34" edge="1">
          <mxGeometry relative="1" as="geometry" />
        </mxCell>
        <mxCell id="1JkFjPlNz9Ic-y4vsCJE-23" value="1" style="edgeLabel;html=1;align=center;verticalAlign=middle;resizable=0;points=[];" vertex="1" connectable="0" parent="b_i_K-voBe4nod8YddAA-65">
          <mxGeometry x="0.8384" relative="1" as="geometry">
            <mxPoint x="1" y="-8" as="offset" />
          </mxGeometry>
        </mxCell>
        <mxCell id="b_i_K-voBe4nod8YddAA-67" style="rounded=0;orthogonalLoop=1;jettySize=auto;html=1;entryX=0;entryY=0.5;entryDx=0;entryDy=0;endArrow=none;endFill=0;" parent="1" source="b_i_K-voBe4nod8YddAA-63" target="b_i_K-voBe4nod8YddAA-66" edge="1">
          <mxGeometry relative="1" as="geometry" />
        </mxCell>
        <mxCell id="1JkFjPlNz9Ic-y4vsCJE-22" value="N" style="edgeLabel;html=1;align=center;verticalAlign=middle;resizable=0;points=[];" vertex="1" connectable="0" parent="b_i_K-voBe4nod8YddAA-67">
          <mxGeometry x="0.5566" y="1" relative="1" as="geometry">
            <mxPoint y="-7" as="offset" />
          </mxGeometry>
        </mxCell>
        <mxCell id="b_i_K-voBe4nod8YddAA-63" value="has" style="shape=rhombus;perimeter=rhombusPerimeter;whiteSpace=wrap;html=1;align=center;" parent="1" vertex="1">
          <mxGeometry x="1125" y="612" width="120" height="60" as="geometry" />
        </mxCell>
        <mxCell id="b_i_K-voBe4nod8YddAA-73" style="rounded=0;orthogonalLoop=1;jettySize=auto;html=1;entryX=0;entryY=0.5;entryDx=0;entryDy=0;endArrow=none;endFill=0;" parent="1" source="b_i_K-voBe4nod8YddAA-66" target="b_i_K-voBe4nod8YddAA-69" edge="1">
          <mxGeometry relative="1" as="geometry" />
        </mxCell>
        <mxCell id="b_i_K-voBe4nod8YddAA-74" style="rounded=0;orthogonalLoop=1;jettySize=auto;html=1;entryX=0.5;entryY=0;entryDx=0;entryDy=0;endArrow=none;endFill=0;" parent="1" source="b_i_K-voBe4nod8YddAA-66" target="b_i_K-voBe4nod8YddAA-70" edge="1">
          <mxGeometry relative="1" as="geometry" />
        </mxCell>
        <mxCell id="b_i_K-voBe4nod8YddAA-66" value="&lt;span style=&quot;font-size: 14px;&quot;&gt;Staff&lt;/span&gt;" style="whiteSpace=wrap;html=1;align=center;" parent="1" vertex="1">
          <mxGeometry x="1280" y="616" width="125" height="52" as="geometry" />
        </mxCell>
        <mxCell id="b_i_K-voBe4nod8YddAA-68" value="&lt;span style=&quot;text-align: left;&quot;&gt;worker_ID&lt;/span&gt;" style="ellipse;whiteSpace=wrap;html=1;align=center;fontStyle=4;" parent="1" vertex="1">
          <mxGeometry x="1355" y="565" width="100" height="40" as="geometry" />
        </mxCell>
        <mxCell id="b_i_K-voBe4nod8YddAA-69" value="&lt;span style=&quot;text-align: left;&quot;&gt;Occupation&lt;/span&gt;" style="ellipse;whiteSpace=wrap;html=1;align=center;" parent="1" vertex="1">
          <mxGeometry x="1450" y="592" width="100" height="40" as="geometry" />
        </mxCell>
        <mxCell id="b_i_K-voBe4nod8YddAA-70" value="&lt;span style=&quot;text-align: left;&quot;&gt;Contact number&lt;/span&gt;" style="ellipse;whiteSpace=wrap;html=1;align=center;" parent="1" vertex="1">
          <mxGeometry x="1355" y="685" width="100" height="40" as="geometry" />
        </mxCell>
        <mxCell id="b_i_K-voBe4nod8YddAA-72" style="rounded=0;orthogonalLoop=1;jettySize=auto;html=1;entryX=0.5;entryY=1;entryDx=0;entryDy=0;endArrow=none;endFill=0;" parent="1" source="b_i_K-voBe4nod8YddAA-66" target="b_i_K-voBe4nod8YddAA-68" edge="1">
          <mxGeometry relative="1" as="geometry" />
        </mxCell>
        <mxCell id="b_i_K-voBe4nod8YddAA-77" style="rounded=0;orthogonalLoop=1;jettySize=auto;html=1;entryX=0.25;entryY=1;entryDx=0;entryDy=0;endArrow=none;endFill=0;exitX=0.5;exitY=0;exitDx=0;exitDy=0;" parent="1" source="b_i_K-voBe4nod8YddAA-75" target="b_i_K-voBe4nod8YddAA-39" edge="1">
          <mxGeometry relative="1" as="geometry" />
        </mxCell>
        <mxCell id="1JkFjPlNz9Ic-y4vsCJE-30" value="1" style="edgeLabel;html=1;align=center;verticalAlign=middle;resizable=0;points=[];" vertex="1" connectable="0" parent="b_i_K-voBe4nod8YddAA-77">
          <mxGeometry x="0.7252" relative="1" as="geometry">
            <mxPoint x="-7" y="-5" as="offset" />
          </mxGeometry>
        </mxCell>
        <mxCell id="b_i_K-voBe4nod8YddAA-80" style="rounded=0;orthogonalLoop=1;jettySize=auto;html=1;entryX=0.5;entryY=0;entryDx=0;entryDy=0;endArrow=none;endFill=0;" parent="1" source="b_i_K-voBe4nod8YddAA-75" target="b_i_K-voBe4nod8YddAA-79" edge="1">
          <mxGeometry relative="1" as="geometry" />
        </mxCell>
        <mxCell id="1JkFjPlNz9Ic-y4vsCJE-31" value="1" style="edgeLabel;html=1;align=center;verticalAlign=middle;resizable=0;points=[];" vertex="1" connectable="0" parent="b_i_K-voBe4nod8YddAA-80">
          <mxGeometry x="0.4851" y="-1" relative="1" as="geometry">
            <mxPoint x="-9" y="-3" as="offset" />
          </mxGeometry>
        </mxCell>
        <mxCell id="b_i_K-voBe4nod8YddAA-75" value="pays for" style="shape=rhombus;perimeter=rhombusPerimeter;whiteSpace=wrap;html=1;align=center;" parent="1" vertex="1">
          <mxGeometry x="230" y="675" width="120" height="60" as="geometry" />
        </mxCell>
        <mxCell id="b_i_K-voBe4nod8YddAA-78" style="rounded=0;orthogonalLoop=1;jettySize=auto;html=1;entryX=0.75;entryY=1;entryDx=0;entryDy=0;endArrow=none;endFill=0;exitX=0.5;exitY=0;exitDx=0;exitDy=0;" parent="1" source="b_i_K-voBe4nod8YddAA-76" target="b_i_K-voBe4nod8YddAA-39" edge="1">
          <mxGeometry relative="1" as="geometry" />
        </mxCell>
        <mxCell id="1JkFjPlNz9Ic-y4vsCJE-32" value="1" style="edgeLabel;html=1;align=center;verticalAlign=middle;resizable=0;points=[];" vertex="1" connectable="0" parent="b_i_K-voBe4nod8YddAA-78">
          <mxGeometry x="0.734" y="1" relative="1" as="geometry">
            <mxPoint x="10" as="offset" />
          </mxGeometry>
        </mxCell>
        <mxCell id="b_i_K-voBe4nod8YddAA-82" style="rounded=0;orthogonalLoop=1;jettySize=auto;html=1;entryX=0.5;entryY=0;entryDx=0;entryDy=0;endArrow=none;endFill=0;" parent="1" source="b_i_K-voBe4nod8YddAA-76" target="b_i_K-voBe4nod8YddAA-81" edge="1">
          <mxGeometry relative="1" as="geometry" />
        </mxCell>
        <mxCell id="1JkFjPlNz9Ic-y4vsCJE-33" value="N" style="edgeLabel;html=1;align=center;verticalAlign=middle;resizable=0;points=[];" vertex="1" connectable="0" parent="b_i_K-voBe4nod8YddAA-82">
          <mxGeometry x="0.5879" relative="1" as="geometry">
            <mxPoint x="10" y="-2" as="offset" />
          </mxGeometry>
        </mxCell>
        <mxCell id="b_i_K-voBe4nod8YddAA-76" value="includes" style="shape=rhombus;perimeter=rhombusPerimeter;whiteSpace=wrap;html=1;align=center;" parent="1" vertex="1">
          <mxGeometry x="470" y="675" width="120" height="60" as="geometry" />
        </mxCell>
        <mxCell id="b_i_K-voBe4nod8YddAA-92" style="rounded=0;orthogonalLoop=1;jettySize=auto;html=1;entryX=1;entryY=0;entryDx=0;entryDy=0;endArrow=none;endFill=0;" parent="1" source="b_i_K-voBe4nod8YddAA-79" target="b_i_K-voBe4nod8YddAA-86" edge="1">
          <mxGeometry relative="1" as="geometry" />
        </mxCell>
        <mxCell id="b_i_K-voBe4nod8YddAA-93" style="rounded=0;orthogonalLoop=1;jettySize=auto;html=1;entryX=0.5;entryY=0;entryDx=0;entryDy=0;endArrow=none;endFill=0;" parent="1" source="b_i_K-voBe4nod8YddAA-79" target="b_i_K-voBe4nod8YddAA-85" edge="1">
          <mxGeometry relative="1" as="geometry" />
        </mxCell>
        <mxCell id="b_i_K-voBe4nod8YddAA-79" value="&lt;span style=&quot;font-size: 14px;&quot;&gt;Payment&lt;/span&gt;" style="whiteSpace=wrap;html=1;align=center;" parent="1" vertex="1">
          <mxGeometry x="230" y="780" width="120" height="55" as="geometry" />
        </mxCell>
        <mxCell id="b_i_K-voBe4nod8YddAA-94" style="rounded=0;orthogonalLoop=1;jettySize=auto;html=1;entryX=0;entryY=0.5;entryDx=0;entryDy=0;endArrow=none;endFill=0;" parent="1" source="b_i_K-voBe4nod8YddAA-81" target="b_i_K-voBe4nod8YddAA-87" edge="1">
          <mxGeometry relative="1" as="geometry" />
        </mxCell>
        <mxCell id="b_i_K-voBe4nod8YddAA-95" style="rounded=0;orthogonalLoop=1;jettySize=auto;html=1;entryX=0;entryY=0;entryDx=0;entryDy=0;endArrow=none;endFill=0;" parent="1" source="b_i_K-voBe4nod8YddAA-81" target="b_i_K-voBe4nod8YddAA-88" edge="1">
          <mxGeometry relative="1" as="geometry" />
        </mxCell>
        <mxCell id="b_i_K-voBe4nod8YddAA-96" style="rounded=0;orthogonalLoop=1;jettySize=auto;html=1;entryX=0.5;entryY=0;entryDx=0;entryDy=0;endArrow=none;endFill=0;" parent="1" source="b_i_K-voBe4nod8YddAA-81" target="b_i_K-voBe4nod8YddAA-89" edge="1">
          <mxGeometry relative="1" as="geometry" />
        </mxCell>
        <mxCell id="b_i_K-voBe4nod8YddAA-81" value="&lt;span style=&quot;font-size: 14px;&quot;&gt;Service&lt;/span&gt;" style="whiteSpace=wrap;html=1;align=center;" parent="1" vertex="1">
          <mxGeometry x="470" y="775" width="120" height="55" as="geometry" />
        </mxCell>
        <mxCell id="b_i_K-voBe4nod8YddAA-83" value="&lt;span style=&quot;text-align: left;&quot;&gt;Payment_ID&lt;/span&gt;" style="ellipse;whiteSpace=wrap;html=1;align=center;fontStyle=4;" parent="1" vertex="1">
          <mxGeometry x="110" y="745" width="100" height="40" as="geometry" />
        </mxCell>
        <mxCell id="b_i_K-voBe4nod8YddAA-91" style="rounded=0;orthogonalLoop=1;jettySize=auto;html=1;entryX=0;entryY=0.5;entryDx=0;entryDy=0;endArrow=none;endFill=0;" parent="1" source="b_i_K-voBe4nod8YddAA-84" target="b_i_K-voBe4nod8YddAA-79" edge="1">
          <mxGeometry relative="1" as="geometry" />
        </mxCell>
        <mxCell id="b_i_K-voBe4nod8YddAA-84" value="&lt;span style=&quot;text-align: left;&quot;&gt;Payment Status&lt;/span&gt;" style="ellipse;whiteSpace=wrap;html=1;align=center;" parent="1" vertex="1">
          <mxGeometry x="90" y="795" width="100" height="40" as="geometry" />
        </mxCell>
        <mxCell id="b_i_K-voBe4nod8YddAA-85" value="&lt;span style=&quot;text-align: left;&quot;&gt;Discount&lt;/span&gt;" style="ellipse;whiteSpace=wrap;html=1;align=center;" parent="1" vertex="1">
          <mxGeometry x="300" y="870" width="100" height="40" as="geometry" />
        </mxCell>
        <mxCell id="b_i_K-voBe4nod8YddAA-86" value="&lt;span style=&quot;text-align: left;&quot;&gt;Payment Date&lt;/span&gt;" style="ellipse;whiteSpace=wrap;html=1;align=center;" parent="1" vertex="1">
          <mxGeometry x="120" y="845" width="100" height="40" as="geometry" />
        </mxCell>
        <mxCell id="b_i_K-voBe4nod8YddAA-87" value="&lt;span style=&quot;text-align: left;&quot;&gt;Service_ID&lt;/span&gt;" style="ellipse;whiteSpace=wrap;html=1;align=center;fontStyle=4;" parent="1" vertex="1">
          <mxGeometry x="620" y="790" width="100" height="40" as="geometry" />
        </mxCell>
        <mxCell id="b_i_K-voBe4nod8YddAA-88" value="&lt;span style=&quot;text-align: left;&quot;&gt;Service type&lt;/span&gt;" style="ellipse;whiteSpace=wrap;html=1;align=center;" parent="1" vertex="1">
          <mxGeometry x="610" y="850" width="100" height="40" as="geometry" />
        </mxCell>
        <mxCell id="b_i_K-voBe4nod8YddAA-89" value="&lt;span style=&quot;text-align: left;&quot;&gt;Price&lt;/span&gt;" style="ellipse;whiteSpace=wrap;html=1;align=center;" parent="1" vertex="1">
          <mxGeometry x="490" y="870" width="100" height="40" as="geometry" />
        </mxCell>
        <mxCell id="b_i_K-voBe4nod8YddAA-90" style="rounded=0;orthogonalLoop=1;jettySize=auto;html=1;entryX=0.25;entryY=0;entryDx=0;entryDy=0;endArrow=none;endFill=0;" parent="1" source="b_i_K-voBe4nod8YddAA-83" target="b_i_K-voBe4nod8YddAA-79" edge="1">
          <mxGeometry relative="1" as="geometry" />
        </mxCell>
        <mxCell id="b_i_K-voBe4nod8YddAA-110" style="rounded=0;orthogonalLoop=1;jettySize=auto;html=1;entryX=0.5;entryY=0;entryDx=0;entryDy=0;endArrow=none;endFill=0;" parent="1" source="b_i_K-voBe4nod8YddAA-97" target="b_i_K-voBe4nod8YddAA-109" edge="1">
          <mxGeometry relative="1" as="geometry" />
        </mxCell>
        <mxCell id="b_i_K-voBe4nod8YddAA-111" style="rounded=0;orthogonalLoop=1;jettySize=auto;html=1;entryX=1;entryY=1;entryDx=0;entryDy=0;endArrow=none;endFill=0;" parent="1" source="b_i_K-voBe4nod8YddAA-97" target="b_i_K-voBe4nod8YddAA-106" edge="1">
          <mxGeometry relative="1" as="geometry" />
        </mxCell>
        <mxCell id="b_i_K-voBe4nod8YddAA-112" style="rounded=0;orthogonalLoop=1;jettySize=auto;html=1;entryX=0.5;entryY=1;entryDx=0;entryDy=0;endArrow=none;endFill=0;" parent="1" source="b_i_K-voBe4nod8YddAA-97" target="b_i_K-voBe4nod8YddAA-104" edge="1">
          <mxGeometry relative="1" as="geometry" />
        </mxCell>
        <mxCell id="b_i_K-voBe4nod8YddAA-113" style="rounded=0;orthogonalLoop=1;jettySize=auto;html=1;entryX=0;entryY=1;entryDx=0;entryDy=0;endArrow=none;endFill=0;" parent="1" source="b_i_K-voBe4nod8YddAA-97" target="b_i_K-voBe4nod8YddAA-107" edge="1">
          <mxGeometry relative="1" as="geometry" />
        </mxCell>
        <mxCell id="b_i_K-voBe4nod8YddAA-114" style="rounded=0;orthogonalLoop=1;jettySize=auto;html=1;entryX=0;entryY=1;entryDx=0;entryDy=0;endArrow=none;endFill=0;" parent="1" source="b_i_K-voBe4nod8YddAA-97" target="b_i_K-voBe4nod8YddAA-108" edge="1">
          <mxGeometry relative="1" as="geometry" />
        </mxCell>
        <mxCell id="b_i_K-voBe4nod8YddAA-97" value="&lt;font style=&quot;font-size: 14px;&quot;&gt;Room/number&lt;/font&gt;" style="whiteSpace=wrap;html=1;align=center;" parent="1" vertex="1">
          <mxGeometry x="710" y="485" width="125" height="55" as="geometry" />
        </mxCell>
        <mxCell id="b_i_K-voBe4nod8YddAA-102" style="rounded=0;orthogonalLoop=1;jettySize=auto;html=1;entryX=0.75;entryY=1;entryDx=0;entryDy=0;endArrow=none;endFill=0;" parent="1" source="b_i_K-voBe4nod8YddAA-98" target="b_i_K-voBe4nod8YddAA-97" edge="1">
          <mxGeometry relative="1" as="geometry" />
        </mxCell>
        <mxCell id="1JkFjPlNz9Ic-y4vsCJE-27" value="N" style="edgeLabel;html=1;align=center;verticalAlign=middle;resizable=0;points=[];" vertex="1" connectable="0" parent="b_i_K-voBe4nod8YddAA-102">
          <mxGeometry x="-0.5301" y="1" relative="1" as="geometry">
            <mxPoint x="10" y="-8" as="offset" />
          </mxGeometry>
        </mxCell>
        <mxCell id="b_i_K-voBe4nod8YddAA-103" style="rounded=0;orthogonalLoop=1;jettySize=auto;html=1;entryX=0.25;entryY=0;entryDx=0;entryDy=0;endArrow=none;endFill=0;" parent="1" source="b_i_K-voBe4nod8YddAA-98" target="b_i_K-voBe4nod8YddAA-34" edge="1">
          <mxGeometry relative="1" as="geometry" />
        </mxCell>
        <mxCell id="1JkFjPlNz9Ic-y4vsCJE-26" value="1" style="edgeLabel;html=1;align=center;verticalAlign=middle;resizable=0;points=[];" vertex="1" connectable="0" parent="b_i_K-voBe4nod8YddAA-103">
          <mxGeometry x="0.5145" y="1" relative="1" as="geometry">
            <mxPoint x="7" y="-5" as="offset" />
          </mxGeometry>
        </mxCell>
        <mxCell id="b_i_K-voBe4nod8YddAA-98" value="contains" style="shape=rhombus;perimeter=rhombusPerimeter;whiteSpace=wrap;html=1;align=center;" parent="1" vertex="1">
          <mxGeometry x="865" y="532" width="120" height="60" as="geometry" />
        </mxCell>
        <mxCell id="b_i_K-voBe4nod8YddAA-100" style="rounded=0;orthogonalLoop=1;jettySize=auto;html=1;entryX=1;entryY=0.5;entryDx=0;entryDy=0;endArrow=none;endFill=0;exitX=0;exitY=0.5;exitDx=0;exitDy=0;" parent="1" source="b_i_K-voBe4nod8YddAA-99" target="b_i_K-voBe4nod8YddAA-39" edge="1">
          <mxGeometry relative="1" as="geometry" />
        </mxCell>
        <mxCell id="1JkFjPlNz9Ic-y4vsCJE-29" value="N" style="edgeLabel;html=1;align=center;verticalAlign=middle;resizable=0;points=[];" vertex="1" connectable="0" parent="b_i_K-voBe4nod8YddAA-100">
          <mxGeometry x="0.7826" y="2" relative="1" as="geometry">
            <mxPoint x="2" y="-12" as="offset" />
          </mxGeometry>
        </mxCell>
        <mxCell id="b_i_K-voBe4nod8YddAA-101" style="rounded=0;orthogonalLoop=1;jettySize=auto;html=1;entryX=0;entryY=0.5;entryDx=0;entryDy=0;endArrow=none;endFill=0;" parent="1" source="b_i_K-voBe4nod8YddAA-99" target="b_i_K-voBe4nod8YddAA-97" edge="1">
          <mxGeometry relative="1" as="geometry">
            <mxPoint x="700" y="495" as="targetPoint" />
          </mxGeometry>
        </mxCell>
        <mxCell id="1JkFjPlNz9Ic-y4vsCJE-28" value="1" style="edgeLabel;html=1;align=center;verticalAlign=middle;resizable=0;points=[];" vertex="1" connectable="0" parent="b_i_K-voBe4nod8YddAA-101">
          <mxGeometry x="-0.6032" relative="1" as="geometry">
            <mxPoint x="37" y="-18" as="offset" />
          </mxGeometry>
        </mxCell>
        <mxCell id="b_i_K-voBe4nod8YddAA-99" value="books" style="shape=rhombus;perimeter=rhombusPerimeter;whiteSpace=wrap;html=1;align=center;" parent="1" vertex="1">
          <mxGeometry x="550" y="505" width="120" height="60" as="geometry" />
        </mxCell>
        <mxCell id="b_i_K-voBe4nod8YddAA-104" value="&lt;span style=&quot;text-align: left;&quot;&gt;Room_ID&lt;/span&gt;" style="ellipse;whiteSpace=wrap;html=1;align=center;fontStyle=4;" parent="1" vertex="1">
          <mxGeometry x="715" y="405" width="100" height="40" as="geometry" />
        </mxCell>
        <mxCell id="b_i_K-voBe4nod8YddAA-106" value="&lt;span style=&quot;text-align: left;&quot;&gt;Price&lt;/span&gt;" style="ellipse;whiteSpace=wrap;html=1;align=center;" parent="1" vertex="1">
          <mxGeometry x="630" y="435" width="100" height="40" as="geometry" />
        </mxCell>
        <mxCell id="b_i_K-voBe4nod8YddAA-107" value="&lt;span style=&quot;text-align: left;&quot;&gt;Bed spaces&lt;/span&gt;" style="ellipse;whiteSpace=wrap;html=1;align=center;" parent="1" vertex="1">
          <mxGeometry x="820" y="415" width="100" height="40" as="geometry" />
        </mxCell>
        <mxCell id="b_i_K-voBe4nod8YddAA-108" value="&lt;span style=&quot;text-align: left;&quot;&gt;Status&lt;/span&gt;" style="ellipse;whiteSpace=wrap;html=1;align=center;" parent="1" vertex="1">
          <mxGeometry x="865" y="465" width="100" height="40" as="geometry" />
        </mxCell>
        <mxCell id="b_i_K-voBe4nod8YddAA-109" value="&lt;span style=&quot;text-align: left;&quot;&gt;Accommodations_ID&lt;/span&gt;&lt;div style=&quot;&quot;&gt;(FK)&lt;/div&gt;" style="ellipse;whiteSpace=wrap;html=1;align=center;" parent="1" vertex="1">
          <mxGeometry x="710" y="565" width="130" height="55" as="geometry" />
        </mxCell>
        <mxCell id="1JkFjPlNz9Ic-y4vsCJE-5" style="rounded=0;orthogonalLoop=1;jettySize=auto;html=1;entryX=1;entryY=0;entryDx=0;entryDy=0;endArrow=none;endFill=0;" edge="1" parent="1" source="1JkFjPlNz9Ic-y4vsCJE-4" target="b_i_K-voBe4nod8YddAA-16">
          <mxGeometry relative="1" as="geometry" />
        </mxCell>
        <mxCell id="1JkFjPlNz9Ic-y4vsCJE-4" value="&lt;span style=&quot;text-align: left;&quot;&gt;User_ID (FK)&lt;/span&gt;" style="ellipse;whiteSpace=wrap;html=1;align=center;" vertex="1" parent="1">
          <mxGeometry x="1027" y="180" width="100" height="40" as="geometry" />
        </mxCell>
        <mxCell id="1JkFjPlNz9Ic-y4vsCJE-8" style="rounded=0;orthogonalLoop=1;jettySize=auto;html=1;entryX=1;entryY=0.5;entryDx=0;entryDy=0;endArrow=none;endFill=0;" edge="1" parent="1" source="1JkFjPlNz9Ic-y4vsCJE-6" target="b_i_K-voBe4nod8YddAA-16">
          <mxGeometry relative="1" as="geometry" />
        </mxCell>
        <mxCell id="1JkFjPlNz9Ic-y4vsCJE-6" value="&lt;span style=&quot;text-align: left;&quot;&gt;Room_ID (FK)&lt;/span&gt;" style="ellipse;whiteSpace=wrap;html=1;align=center;" vertex="1" parent="1">
          <mxGeometry x="1145" y="270" width="100" height="40" as="geometry" />
        </mxCell>
        <mxCell id="1JkFjPlNz9Ic-y4vsCJE-9" style="rounded=0;orthogonalLoop=1;jettySize=auto;html=1;entryX=1;entryY=0.25;entryDx=0;entryDy=0;endArrow=none;endFill=0;" edge="1" parent="1" source="1JkFjPlNz9Ic-y4vsCJE-7" target="b_i_K-voBe4nod8YddAA-16">
          <mxGeometry relative="1" as="geometry" />
        </mxCell>
        <mxCell id="1JkFjPlNz9Ic-y4vsCJE-7" value="&lt;span style=&quot;text-align: left;&quot;&gt;Accommodations_ID&lt;br&gt;(FK)&amp;nbsp;&lt;/span&gt;" style="ellipse;whiteSpace=wrap;html=1;align=center;" vertex="1" parent="1">
          <mxGeometry x="1100" y="210" width="130" height="50" as="geometry" />
        </mxCell>
        <mxCell id="1JkFjPlNz9Ic-y4vsCJE-11" style="rounded=0;orthogonalLoop=1;jettySize=auto;html=1;entryX=1;entryY=0.5;entryDx=0;entryDy=0;endArrow=none;endFill=0;" edge="1" parent="1" source="1JkFjPlNz9Ic-y4vsCJE-10" target="b_i_K-voBe4nod8YddAA-66">
          <mxGeometry relative="1" as="geometry" />
        </mxCell>
        <mxCell id="1JkFjPlNz9Ic-y4vsCJE-10" value="&lt;span style=&quot;text-align: left;&quot;&gt;Accommodations_ID (FK)&lt;/span&gt;" style="ellipse;whiteSpace=wrap;html=1;align=center;" vertex="1" parent="1">
          <mxGeometry x="1455" y="645" width="130" height="50" as="geometry" />
        </mxCell>
        <mxCell id="1JkFjPlNz9Ic-y4vsCJE-12" value="&lt;span style=&quot;text-align: left;&quot;&gt;Reservation_ID (FK)&lt;/span&gt;" style="ellipse;whiteSpace=wrap;html=1;align=center;" vertex="1" parent="1">
          <mxGeometry x="1025" y="730" width="100" height="45" as="geometry" />
        </mxCell>
        <mxCell id="1JkFjPlNz9Ic-y4vsCJE-13" value="&lt;span style=&quot;text-align: left;&quot;&gt;Room_ID (FK)&lt;/span&gt;" style="ellipse;whiteSpace=wrap;html=1;align=center;" vertex="1" parent="1">
          <mxGeometry x="1090" y="685" width="100" height="40" as="geometry" />
        </mxCell>
        <mxCell id="1JkFjPlNz9Ic-y4vsCJE-17" style="rounded=0;orthogonalLoop=1;jettySize=auto;html=1;entryX=0.5;entryY=1;entryDx=0;entryDy=0;endArrow=none;endFill=0;" edge="1" parent="1" source="1JkFjPlNz9Ic-y4vsCJE-16" target="b_i_K-voBe4nod8YddAA-79">
          <mxGeometry relative="1" as="geometry" />
        </mxCell>
        <mxCell id="1JkFjPlNz9Ic-y4vsCJE-16" value="&lt;span style=&quot;text-align: left;&quot;&gt;Reservation_ID (FK)&lt;/span&gt;" style="ellipse;whiteSpace=wrap;html=1;align=center;" vertex="1" parent="1">
          <mxGeometry x="190" y="880" width="100" height="50" as="geometry" />
        </mxCell>
        <mxCell id="1JkFjPlNz9Ic-y4vsCJE-34" value="Contact number" style="ellipse;shape=doubleEllipse;margin=3;whiteSpace=wrap;html=1;align=center;" vertex="1" parent="1">
          <mxGeometry x="400" y="285" width="100" height="40" as="geometry" />
        </mxCell>
      </root>
    </mxGraphModel>
  </diagram>
</mxfile>
